<?xml version="1.0" encoding="UTF-8"?>
<svg xmlns="http://www.w3.org/2000/svg" id="Layer_2" data-name="Layer 2" width="617.5" height="141" viewBox="0 0 617.5 141">
  <defs>
    <style>
      .cls-1 {
        fill: #0abc45;
      }
    </style>
  </defs>
  <g id="logo">
    <path class="cls-1" d="M126.4,19.2c-2-4.3-4.5-7.8-7.7-10.6-3.2-2.8-6.8-4.9-10.7-6.3-3.4-1.2-6.8-1.9-10.2-2.1V20.1c2.9,.3,5.5,1.4,7.7,3.3,2.7,2.3,4,5.8,4,10.6V107.2c0,4.8-1.3,8.3-4,10.6-2.2,1.9-4.8,3-7.7,3.3v19.9c3.4-.2,6.8-.9,10.2-2.1,4-1.4,7.5-3.5,10.7-6.3s5.7-6.3,7.7-10.5c1.9-4.2,2.9-9.2,2.9-14.9V34c.1-5.6-.9-10.5-2.9-14.8m-53.1-10.6c-3.2,2.8-5.7,6.3-7.7,10.6-1.9,4.3-2.9,9.2-2.9,14.8V107.2c0,5.7,1,10.7,2.9,14.9,2,4.2,4.5,7.7,7.7,10.5s6.8,4.9,10.7,6.3c3.4,1.2,6.8,1.9,10.2,2.1v-19.8c-2.9-.3-5.5-1.4-7.7-3.3-2.7-2.3-4-5.8-4-10.6V34c0-4.8,1.3-8.3,4-10.6,2.2-1.9,4.8-3,7.7-3.3V.1c-3.4,.2-6.8,.9-10.2,2.1-3.9,1.4-7.5,3.6-10.7,6.4m90.9,53.2v79.2h-20.2V0h56.1V19h-35.9V61.8m170.7,79.2h-20.6L286.6,0h20.6l27.7,141m-8.2-61.2L342.4,0h20.4l27.7,141h-20.6l-17.3-87.9-15.6,79.6-10.3-52.9Zm55.6,0L398,0h20.6l-26.1,132.7-10.2-52.9m103.8,61.2h-20.2l-19.6-100.4h-.4l-9.9,51.1h16.7l3.8,19h-24l-5.9,30.3h-20.2L437.9,0h16.8l31.4,141Zm-465.9,0H0V0H20.2V141Zm3.5-20.2h30.3v20.2H23.7v-20.2Zm492.2,20.2h-20.2V0h20.2V141Zm3.5-20.2h30.4v20.2h-30.3v-20.2h-.1Zm64.2,20.2h-20.2V0h20.2V141Zm3.6-20.2h30.3v20.2h-30.3v-20.2ZM168.4,61.9h23.5v18.9h-23.5v-18.9Zm108.3-42.9h-66.9V0h66.9V19Zm-23.4,122h-20.2V22.7h20.2v118.3Z"></path>
  </g>
</svg>
